<?xml version="1.0" encoding="UTF-8" standalone="no"?>
<!-- Created with Inkscape (http://www.inkscape.org/) -->

<svg
   xmlns:dc="http://purl.org/dc/elements/1.1/"
   xmlns:cc="http://creativecommons.org/ns#"
   xmlns:rdf="http://www.w3.org/1999/02/22-rdf-syntax-ns#"
   xmlns:svg="http://www.w3.org/2000/svg"
   xmlns="http://www.w3.org/2000/svg"
   xmlns:sodipodi="http://sodipodi.sourceforge.net/DTD/sodipodi-0.dtd"
   xmlns:inkscape="http://www.inkscape.org/namespaces/inkscape"
   id="svg2985"
   version="1.1"
   inkscape:version="0.48.4 r9939"
   width="135.27719"
   height="151.31079"
   xml:space="preserve"
   sodipodi:docname="shield_logo_inverted.svg"><metadata
     id="metadata2991"><rdf:RDF><cc:Work
         rdf:about=""><dc:format>image/svg+xml</dc:format><dc:type
           rdf:resource="http://purl.org/dc/dcmitype/StillImage" /><dc:title></dc:title></cc:Work></rdf:RDF></metadata><defs
     id="defs2989" /><sodipodi:namedview
     pagecolor="#ffffff"
     bordercolor="#666666"
     borderopacity="1"
     objecttolerance="10"
     gridtolerance="10"
     guidetolerance="10"
     inkscape:pageopacity="0"
     inkscape:pageshadow="2"
     inkscape:window-width="1680"
     inkscape:window-height="987"
     id="namedview2987"
     showgrid="false"
     fit-margin-top="0"
     fit-margin-left="0"
     fit-margin-right="0"
     fit-margin-bottom="0"
     inkscape:zoom="0.80808081"
     inkscape:cx="8.9377101"
     inkscape:cy="98.722409"
     inkscape:window-x="-8"
     inkscape:window-y="-8"
     inkscape:window-maximized="1"
     inkscape:current-layer="g2995" /><g
     id="g2993"
     inkscape:groupmode="layer"
     inkscape:label="shield_logo"
     transform="matrix(1.25,0,0,-1.25,-328.66076,547.58838)"><g
       id="g2995"
       transform="scale(1,-1)"><path
         d="m 317.01172,-436.4707 c 0,0 20.74414,42.41601 51.85937,16.7705 0,0 10.57032,101.07813 -51.68457,101.07813 -62.25537,0 -52.0332,-101.07813 -52.0332,-101.07813 31.11377,25.64551 51.8584,-16.7705 51.8584,-16.7705 z"
         style="fill:#ffffff;fill-opacity:1;fill-rule:nonzero;stroke:#303636;stroke-width:3.20000005;stroke-miterlimit:4;stroke-opacity:1;stroke-dasharray:none"
         id="path2997"
         inkscape:connector-curvature="0" /><path
         d="m 323.23633,-373.32617 c 0.0557,-4.31543 0.4541,-9.12891 1.47363,-14.18848 53.66504,0.48633 20.82031,12.8584 -1.47363,14.18848 z m -10.50879,18.02344 c -0.33594,-2.15235 -1.12305,-8.26075 -0.80078,-16.49903 2.24902,0.10645 4.50195,0.16797 6.73926,0.17969 -0.28418,7.59961 0.37597,13.35937 0.73437,15.83301 -2.03809,0.10742 -4.25586,0.26172 -6.67285,0.48633 m 1.08496,-32.16016 c 2.37598,-0.04 4.62891,-0.0605 6.75977,-0.0644 -1.06348,5.1416 -1.60254,9.99023 -1.83399,14.31445 -2.29101,-0.0127 -4.54394,-0.0723 -6.73633,-0.18848 0.2334,-4.25683 0.77442,-9.02051 1.81055,-14.06152 m -4.09961,-2.80078 c -10.08594,0.17187 -8.21435,0.13379 -22.22363,0.77734 0,0 -0.2793,3.17969 -0.2793,3.17969 12.47461,-0.68066 13.69238,-0.79492 22.44043,-1.05859 -1.02539,4.87011 -1.69726,9.49316 -2.13184,13.65722 -26.51367,-2.27929 -41.38574,-12.08496 -3.84375,-23.90332 0.22706,1.92432 6.57422,3.46485 14.37793,3.46485 7.94532,0 14.38672,-1.59961 14.38672,-3.57129 0,-1.97364 -6.4414,-3.57178 -14.38672,-3.57178 -4.27246,0 -8.10937,0.46338 -10.74609,1.19775 0,0 0.008,-0.0107 0.008,-0.0107 -60.90381,13.30469 -33.13379,25.52637 0.0439,28.02149 -0.83301,9.08984 -0.51367,15.70117 -0.23047,17.39062 -4.92969,0.55469 -12.38818,1.31738 -18.84668,2.43652 0,0 0.63916,4.29981 0.63916,4.29981 45.19482,-7.48145 59.02979,-2.62207 59.02979,-2.62207 0,0 0,-3.55567 0,-3.55567 0,0 -5.19141,-1.84179 -23.25879,-1.48925 -0.36817,-2.58008 -1.42286,-8.4502 -1.46582,-16.08789 31.02441,-1.4629 80.83984,-20.14844 -13.5127,-18.55469"
         style="fill:#303636;fill-opacity:1;fill-rule:nonzero;stroke:none"
         id="path2999"
         inkscape:connector-curvature="0" /></g></g></svg>